# xmcd
#
# Track frame offsets:
#	150
#	27884
#	46988
#	78170
#	98997
#	116414
#	164458
#	189425
#	212563
#	234231
#	279945
#	299420
#
# Disc length: 4314 seconds
#
# Revision: 10
# Processed by: cddbd v1.5.2PL0 Copyright (c) Steve Scherf et al.
# Submitted via: audiograbber 1.83.01
#
DISCID=9910d80c
DTITLE=Tobias Sammet's Avantasia - The Mystery Of Time - A Rock Epic [Limited E
DTITLE=dition]
DYEAR=2013
DGENRE=Heavy Metal
TTITLE0=Spectres (with Joe Lynn Turner)
TTITLE1=The Watchmakers' Dream (with Joe Lynn Turner)
TTITLE2=Black Orchid (with Biff Byford)
TTITLE3=Where Clock Hands Freeze (with Michael Kiske)
TTITLE4=Sleepwalking (with Cloudy Yang)
TTITLE5=Savior In The Clockwork (with Joe Lynn Turner and Biff Byford and Michael K
TTITLE5=iske)
TTITLE6=Invoke The Machine (with Ronnie Atkins)
TTITLE7=What's Left Of Me (with Eric Martin)
TTITLE8=Dweller In A Dream (with Michael Kiske)
TTITLE9=The Great Mystery (with Joe Lynn Turner and Biff Byford and Bob Catley)
TTITLE10=The Cross And You [bonus track]
TTITLE11=Death Is Just A Feeling [alternate version] [bonus track]
EXTD=
EXTT0=
EXTT1=
EXTT2=
EXTT3=
EXTT4=
EXTT5=
EXTT6=
EXTT7=
EXTT8=
EXTT9=
EXTT10=
EXTT11=
PLAYORDER=
